# This file uses centimeters as units for non-parametric coordinates.

mtllib SM_SeaWeed.mtl
g default
v 0.951057 0.309017 -1.000000
v 0.809018 0.587786 -1.000000
v 0.587786 0.809017 -1.000000
v 0.309017 0.951057 -1.000000
v 0.000000 1.000000 -1.000000
v -0.309017 0.951057 -1.000000
v -0.587785 0.809017 -1.000000
v -0.809017 0.587785 -1.000000
v -0.951057 0.309017 -1.000000
v -1.000000 0.000000 -1.000000
v -0.951057 -0.309017 -1.000000
v -0.809017 -0.587785 -1.000000
v -0.587785 -0.809017 -1.000000
v -0.309017 -0.951057 -1.000000
v -0.000000 -1.000000 -1.000000
v 0.309017 -0.951057 -1.000000
v 0.587785 -0.809017 -1.000000
v 0.809017 -0.587785 -1.000000
v 0.951057 -0.309017 -1.000000
v 1.000000 0.000000 -1.000000
v 0.951057 0.309017 1.000000
v 0.809018 0.587786 1.000000
v 0.587786 0.809017 1.000000
v 0.309017 0.951057 1.000000
v 0.000000 1.000000 1.000000
v -0.309017 0.951057 1.000000
v -0.587785 0.809017 1.000000
v -0.809017 0.587785 1.000000
v -0.951057 0.309017 1.000000
v -1.000000 0.000000 1.000000
v -0.951057 -0.309017 1.000000
v -0.809017 -0.587785 1.000000
v -0.587785 -0.809017 1.000000
v -0.309017 -0.951057 1.000000
v -0.000000 -1.000000 1.000000
v 0.309017 -0.951057 1.000000
v 0.587785 -0.809017 1.000000
v 0.809017 -0.587785 1.000000
v 0.951057 -0.309017 1.000000
v 1.000000 0.000000 1.000000
v 0.000000 0.000000 -1.000000
v 0.000000 0.000000 1.000000
v 4.538833 -1.000000 -1.000000
v 4.538833 -1.000000 1.000000
v -0.000000 -1.000000 -1.000000
v -0.000000 -1.000000 -1.000000
v -0.000000 -1.000000 -1.000000
v -0.000000 -1.000000 -1.000000
v -0.000000 -1.000000 1.000000
v -0.000000 -1.000000 1.000000
v -0.000000 -1.000000 1.000000
v -0.000000 -1.000000 1.000000
vt 0.705842 0.756027
vt 0.690726 0.709991
vt 0.662529 0.670904
vt 0.624054 0.642268
vt 0.578940 0.626554
vt 0.531320 0.625051
vt 0.485475 0.637808
vt 0.445502 0.663662
vt 0.415003 0.700331
vt 0.396795 0.744578
vt 0.392657 0.792447
vt 0.403140 0.839570
vt 0.427451 0.881543
vt 0.463462 0.914340
vt 0.577115 0.936308
vt 0.623732 0.920791
vt 0.663202 0.891477
vt 0.691597 0.851429
vt 0.706222 0.804735
vt 0.023097 0.313414
vt 0.071966 0.313342
vt 0.120835 0.313269
vt 0.169704 0.313196
vt 0.218573 0.313124
vt 0.267442 0.313051
vt 0.316311 0.312978
vt 0.365180 0.312906
vt 0.414049 0.312833
vt 0.462918 0.312761
vt 0.511787 0.312688
vt 0.560655 0.312615
vt 0.609524 0.312543
vt 0.658393 0.312470
vt 0.755655 0.624791
vt 0.804524 0.624792
vt 0.853393 0.624792
vt 0.902262 0.624793
vt 0.951131 0.624793
vt 1.000000 0.624794
vt 0.023562 0.625806
vt 0.072431 0.625734
vt 0.121300 0.625661
vt 0.170169 0.625588
vt 0.219037 0.625516
vt 0.267906 0.625443
vt 0.316775 0.625371
vt 0.365644 0.625298
vt 0.414513 0.625225
vt 0.463382 0.625153
vt 0.512251 0.625080
vt 0.561120 0.625007
vt 0.609989 0.624935
vt 0.658857 0.624862
vt 0.755652 0.937184
vt 0.804521 0.937184
vt 0.853390 0.937185
vt 0.902259 0.937185
vt 0.951128 0.937186
vt 0.999997 0.937186
vt 0.376596 0.850710
vt 0.391697 0.804233
vt 0.391697 0.755364
vt 0.376596 0.708887
vt 0.308336 0.640627
vt 0.261859 0.625525
vt 0.212990 0.625525
vt 0.166513 0.640627
vt 0.126977 0.669351
vt 0.098252 0.708887
vt 0.083151 0.755364
vt 0.083151 0.804233
vt 0.098252 0.850710
vt 0.126977 0.890246
vt 0.166513 0.918970
vt 0.212990 0.934072
vt 0.261859 0.934072
vt 0.308336 0.918970
vt 0.347872 0.890246
vt 0.550572 0.782340
vt 0.237424 0.779798
vt 0.708948 0.000000
vt 0.709204 0.312392
vt 0.000256 0.312972
vt 0.000000 0.000580
vt 0.706786 0.624791
vt 0.528132 0.936349
vt 0.707262 0.312397
vt 0.507850 0.934732
vt 0.347872 0.669351
vt 0.706783 0.937183
vt 0.347872 0.669351
vt 0.707726 0.624789
vn 0.951057 0.309016 0.000000
vn 0.809017 0.587785 0.000000
vn 0.809017 0.587785 0.000000
vn 0.951057 0.309016 0.000000
vn 0.587785 0.809017 0.000000
vn 0.587785 0.809017 0.000000
vn 0.309017 0.951057 0.000000
vn 0.309017 0.951057 0.000000
vn -0.000000 1.000000 0.000000
vn -0.000000 1.000000 0.000000
vn -0.309017 0.951056 0.000000
vn -0.309017 0.951056 0.000000
vn -0.587785 0.809017 0.000000
vn -0.587785 0.809017 0.000000
vn -0.809017 0.587785 0.000000
vn -0.809017 0.587785 0.000000
vn -0.951057 0.309017 0.000000
vn -0.951057 0.309017 0.000000
vn -1.000000 0.000000 0.000000
vn -1.000000 0.000000 0.000000
vn -0.951057 -0.309017 0.000000
vn -0.951057 -0.309017 0.000000
vn -0.809017 -0.587785 0.000000
vn -0.809017 -0.587785 0.000000
vn -0.587785 -0.809017 0.000000
vn -0.587785 -0.809017 0.000000
vn -0.309017 -0.951057 0.000000
vn -0.309017 -0.951057 0.000000
vn -0.156434 -0.987688 0.000000
vn -0.156434 -0.987688 0.000000
vn 0.156435 -0.987688 0.000000
vn 0.309017 -0.951057 0.000000
vn 0.309017 -0.951057 0.000000
vn 0.156435 -0.987688 0.000000
vn 0.587785 -0.809017 0.000000
vn 0.587785 -0.809017 0.000000
vn 0.809017 -0.587785 0.000000
vn 0.809017 -0.587785 0.000000
vn 0.951057 -0.309017 0.000000
vn 0.951057 -0.309017 0.000000
vn 1.000000 -0.000001 0.000000
vn 1.000000 -0.000001 0.000000
vn 0.000000 -0.000000 -1.000000
vn 0.000000 -0.000000 -1.000000
vn 0.000000 -0.000000 -1.000000
vn 0.000000 -0.000000 -1.000000
vn 0.000000 -0.000000 -1.000000
vn 0.000000 -0.000000 -1.000000
vn 0.000000 -0.000000 -1.000000
vn 0.000000 -0.000000 -1.000000
vn 0.000000 -0.000000 -1.000000
vn 0.000000 -0.000000 -1.000000
vn 0.000000 -0.000000 -1.000000
vn 0.000000 -0.000000 -1.000000
vn 0.000000 -0.000000 -1.000000
vn 0.000000 -0.000000 -1.000000
vn 0.000000 -0.000000 -1.000000
vn 0.000000 -0.000000 -1.000000
vn 0.000000 -0.000000 -1.000000
vn 0.000000 -0.000000 -1.000000
vn 0.000000 -0.000000 -1.000000
vn 0.000000 -0.000000 -1.000000
vn 0.000000 -0.000000 -1.000000
vn 0.000000 -0.000000 -1.000000
vn 0.000000 0.000000 1.000000
vn 0.000000 0.000000 1.000000
vn 0.000000 0.000000 1.000000
vn 0.000000 0.000000 1.000000
vn 0.000000 0.000000 1.000000
vn 0.000000 0.000000 1.000000
vn 0.000000 0.000000 1.000000
vn 0.000000 0.000000 1.000000
vn 0.000000 0.000000 1.000000
vn 0.000000 0.000000 1.000000
vn 0.000000 0.000000 1.000000
vn 0.000000 0.000000 1.000000
vn 0.000000 0.000000 1.000000
vn 0.000000 0.000000 1.000000
vn 0.000000 0.000000 1.000000
vn 0.000000 0.000000 1.000000
vn 0.000000 0.000000 1.000000
vn 0.000000 0.000000 1.000000
vn 0.000000 0.000000 1.000000
vn 0.000000 0.000000 1.000000
vn 0.000000 0.000000 1.000000
vn 0.000000 0.000000 1.000000
vn 0.000000 1.000000 0.000000
vn 0.000000 1.000000 0.000000
vn 0.000000 1.000000 0.000000
vn 0.000000 1.000000 0.000000
s 1
g SeaWeed1
usemtl initialShadingGroup
f 1/20/1 2/21/2 22/41/3 21/40/4
f 2/21/2 3/22/5 23/42/6 22/41/3
f 3/22/5 4/23/7 24/43/8 23/42/6
f 4/23/7 5/24/9 25/44/10 24/43/8
f 5/24/9 6/25/11 26/45/12 25/44/10
f 6/25/11 7/26/13 27/46/14 26/45/12
f 7/26/13 8/27/15 28/47/16 27/46/14
f 8/27/15 9/28/17 29/48/18 28/47/16
f 9/28/17 10/29/19 30/49/20 29/48/18
f 10/29/19 11/30/21 31/50/22 30/49/20
f 11/30/21 12/31/23 32/51/24 31/50/22
f 12/31/23 13/32/25 33/52/26 32/51/24
f 13/32/25 14/33/27 34/53/28 33/52/26
f 14/33/27 47/87/29 51/92/30 34/53/28
f 48/85/31 16/34/32 36/54/33 52/90/34
f 16/34/32 17/35/35 37/55/36 36/54/33
f 17/35/35 18/36/37 38/56/38 37/55/36
f 18/36/37 19/37/39 39/57/40 38/56/38
f 19/37/39 20/38/41 40/58/42 39/57/40
f 20/38/41 1/39/1 21/59/4 40/58/42
s 3
f 2/2/43 1/1/44 41/79/45
f 3/3/46 2/2/43 41/79/45
f 4/4/47 3/3/46 41/79/45
f 5/5/48 4/4/47 41/79/45
f 6/6/49 5/5/48 41/79/45
f 7/7/50 6/6/49 41/79/45
f 8/8/51 7/7/50 41/79/45
f 9/9/52 8/8/51 41/79/45
f 10/10/53 9/9/52 41/79/45
f 11/11/54 10/10/53 41/79/45
f 12/12/55 11/11/54 41/79/45
f 13/13/56 12/12/55 41/79/45
f 14/14/57 13/13/56 41/79/45
f 45/88/58 14/14/57 41/79/45
f 16/15/59 46/86/60 41/79/45
f 17/16/61 16/15/59 41/79/45
f 18/17/62 17/16/61 41/79/45
f 19/18/63 18/17/62 41/79/45
f 20/19/64 19/18/63 41/79/45
f 1/1/44 20/19/64 41/79/45
s 5
f 21/77/65 22/76/66 42/80/67
f 22/76/66 23/75/68 42/80/67
f 23/75/68 24/74/69 42/80/67
f 24/74/69 25/73/70 42/80/67
f 25/73/70 26/72/71 42/80/67
f 26/72/71 27/71/72 42/80/67
f 27/71/72 28/70/73 42/80/67
f 28/70/73 29/69/74 42/80/67
f 29/69/74 30/68/75 42/80/67
f 30/68/75 31/67/76 42/80/67
f 31/67/76 32/66/77 42/80/67
f 32/66/77 33/65/78 42/80/67
f 33/65/78 34/64/79 42/80/67
f 34/64/79 49/91/80 42/80/67
f 50/89/81 36/63/82 42/80/67
f 36/63/82 37/62/83 42/80/67
f 37/62/83 38/61/84 42/80/67
f 38/61/84 39/60/85 42/80/67
f 39/60/85 40/78/86 42/80/67
f 40/78/86 21/77/65 42/80/67
s off
f 15/81/87 35/82/88 44/83/89 43/84/90
