# This file uses centimeters as units for non-parametric coordinates.

mtllib Taco_Shell.mtl
g default
v -0.079278 -0.464132 0.934223
v 0.079278 -0.464132 0.934223
v -0.079278 -0.382764 0.934223
v 0.079278 -0.382764 0.934223
v -0.079278 -0.382764 -0.934223
v 0.079278 -0.382764 -0.934223
v -0.079278 -0.464132 -0.934223
v 0.079278 -0.464132 -0.934223
v 0.121344 -0.430127 -0.934223
v 0.121344 -0.430127 0.934223
v 0.121344 -0.348759 -0.934223
v 0.121344 -0.348759 0.934223
v -0.121344 -0.430127 -0.934223
v -0.121344 -0.430127 0.934223
v -0.121344 -0.348759 0.934223
v -0.121344 -0.348759 -0.934223
v 0.153489 -0.380833 -0.934223
v 0.153489 -0.380833 0.934223
v 0.153489 -0.299465 -0.934223
v 0.153489 -0.299465 0.934223
v -0.153489 -0.380833 -0.934223
v -0.153489 -0.380833 0.934223
v -0.153489 -0.299465 0.934223
v -0.153489 -0.299465 -0.934223
v 0.196706 -0.306124 -0.934223
v 0.196706 -0.306124 0.934223
v 0.162327 -0.256665 -0.934223
v 0.162327 -0.256665 0.934223
v -0.196706 -0.306124 -0.934223
v -0.196706 -0.306124 0.934223
v -0.162327 -0.256665 0.934223
v -0.162327 -0.256665 -0.934223
v 0.220365 -0.136800 -0.934223
v 0.220365 -0.136800 0.934223
v 0.177100 -0.133773 -0.934223
v 0.177100 -0.133773 0.934223
v -0.220365 -0.136800 -0.934223
v -0.220365 -0.136800 0.934223
v -0.177100 -0.133773 0.934223
v -0.177100 -0.133773 -0.934223
v 0.220365 0.294720 -0.809073
v 0.220365 0.541241 -0.467158
v 0.220365 0.631474 0.000000
v 0.220365 -0.042034 -0.934223
v 0.177100 0.634502 0.000000
v 0.177100 0.544269 -0.467158
v 0.177100 0.297748 -0.809073
v 0.177100 -0.039006 -0.934223
v 0.220365 0.541241 0.467158
v 0.220365 0.294720 0.809073
v 0.220365 -0.042034 0.934223
v 0.177100 0.297748 0.809073
v 0.177100 0.544269 0.467158
v 0.177100 -0.039006 0.934223
v -0.220365 0.294720 0.809073
v -0.220365 0.541241 0.467158
v -0.220365 0.631474 0.000000
v -0.220365 -0.042034 0.934223
v -0.177100 0.634502 0.000000
v -0.177100 0.544269 0.467158
v -0.177100 0.297748 0.809073
v -0.177100 -0.039006 0.934223
v -0.220365 0.541241 -0.467158
v -0.220365 0.294720 -0.809073
v -0.220365 -0.042034 -0.934223
v -0.177100 0.297748 -0.809073
v -0.177100 0.544269 -0.467158
v -0.177100 -0.039006 -0.934223
vt 0.811907 0.151609
vt 0.352489 0.031192
vt 0.847233 0.169208
vt 0.392025 0.980175
vt 0.351092 0.530099
vt 0.770944 0.879383
vt 0.908038 0.895594
vt 0.390629 0.481010
vt 0.916109 0.886742
vt 0.339466 0.031191
vt 0.337019 0.530102
vt 0.856638 0.176628
vt 0.802682 0.159250
vt 0.403651 0.481011
vt 0.406098 0.980173
vt 0.762664 0.870726
vt 0.921497 0.874876
vt 0.325299 0.031190
vt 0.321709 0.530104
vt 0.863886 0.187459
vt 0.795694 0.170251
vt 0.417818 0.481012
vt 0.421408 0.980170
vt 0.756995 0.858991
vt 0.928458 0.857075
vt 0.304521 0.031189
vt 0.310339 0.530106
vt 0.865957 0.196913
vt 0.786321 0.186908
vt 0.438597 0.481013
vt 0.432778 0.980168
vt 0.756262 0.849340
vt 0.927973 0.819216
vt 0.263361 0.031186
vt 0.278137 0.530111
vt 0.869552 0.224088
vt 0.781529 0.224466
vt 0.479756 0.481016
vt 0.464980 0.980163
vt 0.756486 0.821930
vt 0.253483 0.530115
vt 0.240516 0.480999
vt 0.240547 0.031184
vt 0.253166 0.980198
vt 0.489635 0.980159
vt 0.502601 0.031203
vt 0.502570 0.481017
vt 0.489952 0.530077
vt 0.891710 0.522230
vt 0.100104 0.368547
vt 0.101657 0.642649
vt 0.078102 0.755185
vt 0.159447 0.450865
vt 0.165850 0.560276
vt 0.159474 0.061308
vt 0.165576 0.950065
vt 0.100120 0.143617
vt 0.101498 0.867713
vt 0.776071 0.523608
vt 0.643013 0.143655
vt 0.641461 0.867625
vt 0.665015 0.755089
vt 0.583670 0.061337
vt 0.577267 0.949998
vt 0.583644 0.450894
vt 0.577542 0.560209
vt 0.642998 0.368585
vt 0.641619 0.642562
vt 0.785660 0.524164
vt 0.778165 0.629266
vt 0.768576 0.628710
vt 0.664728 0.256121
vt 0.768958 0.722159
vt 0.759369 0.721603
vt 0.759161 0.801114
vt 0.749573 0.800558
vt 0.791368 0.246008
vt 0.791967 0.325566
vt 0.782378 0.325010
vt 0.781778 0.245452
vt 0.790369 0.418901
vt 0.780781 0.418345
vt 0.882138 0.523015
vt 0.874921 0.417893
vt 0.884493 0.417109
vt 0.078389 0.256081
vt 0.871099 0.324623
vt 0.880672 0.323838
vt 0.869802 0.245073
vt 0.879375 0.244288
vt 0.915229 0.799254
vt 0.903554 0.720555
vt 0.913127 0.719771
vt 0.924802 0.798469
vt 0.892136 0.627907
vt 0.901708 0.627123
vt 0.465297 0.530081
vt 0.791118 0.225022
vt 0.479787 0.031201
vt 0.746898 0.821374
vt 0.277820 0.980193
vt 0.918400 0.820000
vt 0.879125 0.223303
vt 0.263330 0.481001
vt 0.433095 0.530086
vt 0.794064 0.197770
vt 0.438628 0.031198
vt 0.747314 0.859234
vt 0.310022 0.980188
vt 0.919277 0.847398
vt 0.873439 0.185870
vt 0.304490 0.481004
vt 0.421725 0.530088
vt 0.795909 0.188269
vt 0.417849 0.031197
vt 0.754698 0.876864
vt 0.321392 0.980186
vt 0.918774 0.857063
vt 0.863671 0.169440
vt 0.325268 0.481005
vt 0.406415 0.530091
vt 0.802897 0.177268
vt 0.403682 0.031196
vt 0.760367 0.888599
vt 0.336702 0.980184
vt 0.913387 0.868930
vt 0.856423 0.158609
vt 0.339435 0.481006
vt 0.392342 0.530093
vt 0.812122 0.169627
vt 0.390660 0.031195
vt 0.768647 0.897255
vt 0.350775 0.980182
vt 0.805771 0.883859
vt 0.847018 0.151190
vt 0.352458 0.481007
vt 0.905316 0.877782
vt 0.803474 0.901731
vn 0.000000 0.000000 1.000000
vn 0.000000 0.000000 1.000000
vn 0.000000 0.000000 1.000000
vn 0.000000 0.000000 1.000000
vn 0.000000 1.000000 0.000000
vn 0.000000 1.000000 0.000000
vn 0.000000 1.000000 0.000000
vn 0.000000 1.000000 0.000000
vn 0.000000 0.000000 -1.000000
vn 0.000000 0.000000 -1.000000
vn 0.000000 0.000000 -1.000000
vn 0.000000 0.000000 -1.000000
vn 0.000000 -1.000000 0.000000
vn 0.000000 -1.000000 0.000000
vn 0.000000 -1.000000 0.000000
vn 0.000000 -1.000000 0.000000
vn 0.628660 -0.777680 0.000000
vn 0.628660 -0.777680 0.000000
vn 0.628660 -0.777680 0.000000
vn 0.628660 -0.777680 0.000000
vn 0.000000 0.000000 -1.000000
vn 0.000000 0.000000 -1.000000
vn 0.000000 0.000000 -1.000000
vn 0.000000 0.000000 -1.000000
vn -0.628660 0.777680 0.000000
vn -0.628660 0.777680 0.000000
vn -0.628660 0.777680 0.000000
vn -0.628660 0.777680 0.000000
vn 0.000000 0.000000 1.000000
vn 0.000000 0.000000 1.000000
vn 0.000000 0.000000 1.000000
vn 0.000000 0.000000 1.000000
vn -0.628660 -0.777680 0.000000
vn -0.628660 -0.777680 0.000000
vn -0.628660 -0.777680 0.000000
vn -0.628660 -0.777680 0.000000
vn 0.000000 0.000000 1.000000
vn 0.000000 0.000000 1.000000
vn 0.000000 0.000000 1.000000
vn 0.000000 0.000000 1.000000
vn 0.628660 0.777680 0.000000
vn 0.628660 0.777680 0.000000
vn 0.628660 0.777680 0.000000
vn 0.628660 0.777680 0.000000
vn 0.000000 0.000000 -1.000000
vn 0.000000 0.000000 -1.000000
vn 0.000000 0.000000 -1.000000
vn 0.000000 0.000000 -1.000000
vn 0.837640 -0.546224 0.000000
vn 0.837640 -0.546224 0.000000
vn 0.837640 -0.546224 0.000000
vn 0.837640 -0.546224 0.000000
vn 0.000000 0.000000 -1.000000
vn 0.000000 0.000000 -1.000000
vn 0.000000 0.000000 -1.000000
vn 0.000000 0.000000 -1.000000
vn -0.837640 0.546224 0.000000
vn -0.837640 0.546224 0.000000
vn -0.837640 0.546224 0.000000
vn -0.837640 0.546224 0.000000
vn 0.000000 0.000000 1.000000
vn 0.000000 0.000000 1.000000
vn 0.000000 0.000000 1.000000
vn 0.000000 0.000000 1.000000
vn -0.837640 -0.546224 0.000000
vn -0.837640 -0.546224 0.000000
vn -0.837640 -0.546224 0.000000
vn -0.837640 -0.546224 0.000000
vn 0.000000 0.000000 1.000000
vn 0.000000 0.000000 1.000000
vn 0.000000 0.000000 1.000000
vn 0.000000 0.000000 1.000000
vn 0.837640 0.546224 0.000000
vn 0.837640 0.546224 0.000000
vn 0.837640 0.546224 0.000000
vn 0.837640 0.546224 0.000000
vn 0.000000 0.000000 -1.000000
vn 0.000000 0.000000 -1.000000
vn 0.000000 0.000000 -1.000000
vn 0.000000 0.000000 -1.000000
vn 0.865604 -0.500729 0.000000
vn 0.865604 -0.500729 0.000000
vn 0.865604 -0.500729 0.000000
vn 0.865604 -0.500729 0.000000
vn 0.000000 0.000000 -1.000000
vn 0.000000 0.000000 -1.000000
vn 0.000000 0.000000 -1.000000
vn 0.000000 0.000000 -1.000000
vn -0.979337 0.202235 0.000000
vn -0.979337 0.202235 0.000000
vn -0.979337 0.202235 0.000000
vn -0.979337 0.202235 0.000000
vn 0.000000 0.000000 1.000000
vn 0.000000 0.000000 1.000000
vn 0.000000 0.000000 1.000000
vn 0.000000 0.000000 1.000000
vn -0.865604 -0.500729 0.000000
vn -0.865604 -0.500729 0.000000
vn -0.865604 -0.500729 0.000000
vn -0.865604 -0.500729 0.000000
vn 0.000000 0.000000 1.000000
vn 0.000000 0.000000 1.000000
vn 0.000000 0.000000 1.000000
vn 0.000000 0.000000 1.000000
vn 0.979337 0.202235 0.000000
vn 0.979337 0.202235 0.000000
vn 0.979337 0.202235 0.000000
vn 0.979337 0.202235 0.000000
vn 0.000000 0.000000 -1.000000
vn 0.000000 0.000000 -1.000000
vn 0.000000 0.000000 -1.000000
vn 0.000000 0.000000 -1.000000
vn 0.990378 -0.138386 0.000000
vn 0.990378 -0.138386 0.000000
vn 0.996011 -0.089232 0.000000
vn 0.996011 -0.089232 0.000000
vn 0.000000 0.000000 -1.000000
vn 0.000000 0.000000 -1.000000
vn 0.000000 0.000000 -1.000000
vn 0.000000 0.000000 -1.000000
vn -0.992852 0.119355 0.000000
vn -0.992852 0.119355 0.000000
vn -0.997704 0.067718 0.000000
vn -0.997704 0.067718 0.000000
vn 0.000000 0.000000 1.000000
vn 0.000000 0.000000 1.000000
vn 0.000000 0.000000 1.000000
vn 0.000000 0.000000 1.000000
vn -0.990378 -0.138386 0.000000
vn -0.990378 -0.138386 0.000000
vn -0.996011 -0.089232 0.000000
vn -0.996011 -0.089232 0.000000
vn 0.000000 0.000000 1.000000
vn 0.000000 0.000000 1.000000
vn 0.000000 0.000000 1.000000
vn 0.000000 0.000000 1.000000
vn 0.992852 0.119355 0.000000
vn 0.992852 0.119355 0.000000
vn 0.997704 0.067718 0.000000
vn 0.997704 0.067718 0.000000
vn 0.000000 0.000000 -1.000000
vn 0.000000 0.000000 -1.000000
vn 0.000000 0.000000 -1.000000
vn 0.000000 0.000000 -1.000000
vn 0.000000 0.000000 -1.000000
vn 0.000000 0.000000 -1.000000
vn 0.019531 0.279069 -0.960072
vn 0.019449 0.277906 -0.960411
vn 0.000000 0.000000 1.000000
vn 0.000000 0.000000 1.000000
vn 0.019449 0.277906 0.960411
vn 0.019530 0.279069 0.960072
vn 0.000000 0.000000 1.000000
vn 0.000000 0.000000 1.000000
vn -0.019531 0.279069 0.960072
vn -0.019449 0.277906 0.960411
vn 0.000000 0.000000 -1.000000
vn 0.000000 0.000000 -1.000000
vn -0.019449 0.277906 -0.960411
vn -0.019530 0.279069 -0.960072
vn 0.069813 0.997560 0.000000
vn 0.068552 0.979542 -0.189202
vn 0.068552 0.979542 -0.189202
vn 0.069813 0.997560 0.000000
vn 0.056677 0.809845 -0.583900
vn 0.043630 0.623428 -0.780662
vn 0.043775 0.625492 -0.779002
vn 0.056677 0.809845 -0.583900
vn 0.043630 0.623428 0.780662
vn 0.043774 0.625492 0.779002
vn 0.056676 0.809845 0.583900
vn 0.056676 0.809845 0.583900
vn 0.068552 0.979542 0.189202
vn 0.068552 0.979542 0.189202
vn -0.069813 0.997560 0.000000
vn -0.068552 0.979542 0.189202
vn -0.068552 0.979542 0.189202
vn -0.069813 0.997560 0.000000
vn -0.056677 0.809845 0.583900
vn -0.043630 0.623428 0.780662
vn -0.043775 0.625492 0.779002
vn -0.056677 0.809845 0.583900
vn -0.043630 0.623428 -0.780662
vn -0.043774 0.625492 -0.779002
vn -0.056676 0.809845 -0.583900
vn -0.056676 0.809845 -0.583900
vn -0.068552 0.979542 -0.189202
vn -0.068552 0.979542 -0.189202
vn 1.000000 0.000000 0.000000
vn 1.000000 0.000000 0.000000
vn 1.000000 0.000000 0.000000
vn -1.000000 0.000000 0.000000
vn -1.000000 0.000000 0.000000
vn -1.000000 0.000000 0.000000
vn -1.000000 -0.000000 0.000000
vn -1.000000 -0.000000 0.000000
vn 1.000000 0.000000 0.000000
vn 1.000000 0.000000 0.000000
vn 1.000000 0.000000 0.000000
vn 1.000000 0.000000 0.000000
vn 1.000000 0.000000 0.000000
vn 1.000000 0.000000 0.000000
vn 1.000000 -0.000000 0.000000
vn 1.000000 -0.000000 0.000000
vn -1.000000 0.000000 0.000000
vn -1.000000 0.000000 0.000000
vn -1.000000 0.000000 0.000000
vn -1.000000 0.000000 0.000000
vn -1.000000 0.000000 0.000000
vn 1.000000 0.000000 0.000000
vn 1.000000 0.000000 0.000000
vn 1.000000 0.000000 0.000000
vn -1.000000 0.000000 0.000000
vn -1.000000 0.000000 0.000000
vn -1.000000 0.000000 0.000000
vn -1.000000 0.000000 0.000000
s off
g Taco_Shell
usemtl initialShadingGroup
f 1/1/1 2/135/2 4/3/3 3/130/4
f 3/4/5 4/133/6 6/5/7 5/129/8
f 5/6/9 6/134/10 8/138/11 7/132/12
f 7/8/13 8/136/14 2/2/15 1/131/16
f 2/2/17 8/136/18 9/128/19 10/10/20
f 8/7/21 6/137/22 11/126/23 9/9/24
f 6/5/25 4/133/26 12/125/27 11/11/28
f 4/3/29 2/135/30 10/127/31 12/12/32
f 7/8/33 1/131/34 14/123/35 13/14/36
f 1/1/37 3/130/38 15/122/39 14/13/40
f 3/4/41 5/129/42 16/121/43 15/15/44
f 5/6/45 7/132/46 13/124/47 16/16/48
f 10/10/49 9/128/50 17/120/51 18/18/52
f 9/9/53 11/126/54 19/118/55 17/17/56
f 11/11/57 12/125/58 20/117/59 19/19/60
f 12/12/61 10/127/62 18/119/63 20/20/64
f 13/14/65 14/123/66 22/115/67 21/22/68
f 14/13/69 15/122/70 23/114/71 22/21/72
f 15/15/73 16/121/74 24/113/75 23/23/76
f 16/16/77 13/124/78 21/116/79 24/24/80
f 18/18/81 17/120/82 25/112/83 26/26/84
f 17/17/85 19/118/86 27/110/87 25/25/88
f 19/19/89 20/117/90 28/109/91 27/27/92
f 20/20/93 18/119/94 26/111/95 28/28/96
f 21/22/97 22/115/98 30/107/99 29/30/100
f 22/21/101 23/114/102 31/106/103 30/29/104
f 23/23/105 24/113/106 32/105/107 31/31/108
f 24/24/109 21/116/110 29/108/111 32/32/112
s 1
f 26/26/113 25/112/114 33/104/115 34/34/116
s off
f 25/25/117 27/110/118 35/102/119 33/33/120
s 2
f 27/27/121 28/109/122 36/101/123 35/35/124
s off
f 28/28/125 26/111/126 34/103/127 36/36/128
s 3
f 29/30/129 30/107/130 38/99/131 37/38/132
s off
f 30/29/133 31/106/134 39/98/135 38/37/136
s 4
f 31/31/137 32/105/138 40/97/139 39/39/140
s off
f 32/32/141 29/108/142 37/100/143 40/40/144
s 5
f 33/33/145 35/102/146 48/91/147 44/94/148
s 6
f 36/36/149 34/103/150 51/90/151 54/89/152
s 7
f 38/37/153 39/98/154 62/77/155 58/80/156
s 8
f 40/40/157 37/100/158 65/76/159 68/75/160
s 9
f 43/49/161 42/96/162 46/95/163 45/83/164
s 5
f 42/96/165 41/93/166 47/92/167 46/95/168
f 41/93/166 44/94/148 48/91/147 47/92/167
s 6
f 51/90/151 50/88/169 52/87/170 54/89/152
f 50/88/169 49/85/171 53/84/172 52/87/170
s 9
f 49/85/173 43/49/161 45/83/164 53/84/174
s 10
f 57/59/175 56/82/176 60/81/177 59/69/178
s 7
f 56/82/179 55/79/180 61/78/181 60/81/182
f 55/79/180 58/80/156 62/77/155 61/78/181
s 8
f 65/76/159 64/74/183 66/73/184 68/75/160
f 64/74/183 63/71/185 67/70/186 66/73/184
s 10
f 63/71/187 57/59/175 59/69/178 67/70/188
s 1
f 49/57/189 42/50/190 43/86/191
s 2
f 46/51/192 53/58/193 45/52/194
s 3
f 58/46/195 65/47/196 37/38/132 38/99/131
s 4
f 66/66/197 61/64/198 62/45/199 68/48/200
s 1
f 41/53/201 50/55/202 51/43/203 44/42/204
s 3
f 63/67/205 64/65/206 55/63/207 56/60/208
s 1
f 44/42/204 51/43/203 34/34/116 33/104/115
s 3
f 55/63/207 64/65/206 65/47/196 58/46/195
s 1
f 49/57/189 50/55/202 41/53/201 42/50/190
s 3
f 63/67/205 56/60/208 57/72/209
s 4
f 60/61/210 67/68/211 59/62/212
s 2
f 52/56/213 53/58/193 46/51/192 47/54/214
s 4
f 66/66/197 67/68/211 60/61/210 61/64/198
s 2
f 54/44/215 48/41/216 35/35/124 36/101/123
s 4
f 68/48/200 62/45/199 39/39/140 40/97/139
s 2
f 52/56/213 47/54/214 48/41/216 54/44/215
